<svg id="Capa_1" data-name="Capa 1" xmlns="http://www.w3.org/2000/svg" viewBox="0 0 130.75 32.69"><defs><style>.cls-1{fill:none;}.cls-2{fill:#dadada;}.cls-3{fill:#ededed;}</style></defs><title>blissey</title><path class="cls-1" d="M205.49,154.92a9.29,9.29,0,0,1,.76-2.12h-14q-2.28,0-2.81,1.26l-.14.61q-.35,1.58,2,1.58h4.57a8.86,8.86,0,0,1,2.43.31,4.33,4.33,0,0,1,1.78,1,3.23,3.23,0,0,1,.64.83h4.82a3.23,3.23,0,0,1-.24-.79A7,7,0,0,1,205.49,154.92Z" transform="translate(-134.22 -141.96)"/><path class="cls-1" d="M151.88,157.16h-7.94l-.27,1.21h11Q154.11,157.16,151.88,157.16Z" transform="translate(-134.22 -141.96)"/><path class="cls-1" d="M237.1,152.8a11,11,0,0,0-2.61.25,3.38,3.38,0,0,0-1.71,1,4.55,4.55,0,0,0-1.16,2.3h11.3l-.43,2h3.1l1.23-5.56Z" transform="translate(-134.22 -141.96)"/><path class="cls-2" d="M163.11,149.09a14.73,14.73,0,0,0,.21-3.08,2.81,2.81,0,0,0-1.72-2.79,14,14,0,0,0-3.07-1,19.08,19.08,0,0,0-3.38-.25H141.86l-3.63,16.4h5.44l.27-1.21h7.94q2.23,0,2.8,1.21h6.08s0,0,0-.07a4.27,4.27,0,0,0-.91-1.89,6.12,6.12,0,0,0-1.83-1.48Q162.3,152.76,163.11,149.09Zm-6,.54a3.39,3.39,0,0,1-1.44,2.27,5.21,5.21,0,0,1-2.82.68h-7.92l1.32-6h7.92Q157.79,146.61,157.12,149.63Z" transform="translate(-134.22 -141.96)"/><polygon class="cls-2" points="39.5 0 34.32 0 30.69 16.4 35.88 16.4 39.5 0"/><polygon class="cls-2" points="43.82 0 42.78 4.72 47.96 4.72 49.01 0 43.82 0"/><polygon class="cls-2" points="40.2 16.4 45.38 16.4 47.48 6.91 42.29 6.91 40.2 16.4"/><path class="cls-2" d="M210.83,154.06q.53-1.26,2.81-1.26h8.74l1.87-3.92H213.52c-.23,0-.44,0-.66,0v0H192.14q-6.7,0-8,6a7,7,0,0,0-.15,2.65,3.23,3.23,0,0,0,.24.79h16.56a3.23,3.23,0,0,0-.64-.83,4.33,4.33,0,0,0-1.78-1,8.86,8.86,0,0,0-2.43-.31h-4.57q-2.38,0-2-1.58l.14-.61q.53-1.26,2.81-1.26h14a9.29,9.29,0,0,0-.76,2.12,7,7,0,0,0-.15,2.65,3.23,3.23,0,0,0,.24.79h16.56a3.23,3.23,0,0,0-.64-.83,4.33,4.33,0,0,0-1.78-1,8.86,8.86,0,0,0-2.43-.31h-4.57q-2.38,0-2-1.58Z" transform="translate(-134.22 -141.96)"/><polygon class="cls-2" points="125.74 6.91 123.64 16.4 128.65 16.4 130.75 6.91 125.74 6.91"/><path class="cls-2" d="M247.68,148.88h-10.4a15.74,15.74,0,0,0-4.17.54,11.11,11.11,0,0,0-4.26,2.57,11.61,11.61,0,0,0-3.24,6.35v0h16.88l.43-2h-11.3a4.55,4.55,0,0,1,1.16-2.3,3.38,3.38,0,0,1,1.71-1,11,11,0,0,1,2.61-.25h9.72l-1.23,5.56h4.9l2.1-9.49h-4.9Z" transform="translate(-134.22 -141.96)"/><path class="cls-3" d="M153.72,167.54a11.07,11.07,0,0,0,2.27-.68,12.25,12.25,0,0,0,1.91-1.15,5.66,5.66,0,0,0,1.81-2.39,15,15,0,0,0,1-2.7,5.69,5.69,0,0,0,.09-2.25h-6.08a2.92,2.92,0,0,1,.09,1.89,3.54,3.54,0,0,1-1.43,2.32,5.06,5.06,0,0,1-2.82.7h-7.94l1.09-4.91h-5.44l-2.1,9.49h14.22A16.45,16.45,0,0,0,153.72,167.54Z" transform="translate(-134.22 -141.96)"/><polygon class="cls-3" points="35.88 16.4 30.69 16.4 28.59 25.88 33.78 25.88 35.88 16.4"/><path class="cls-3" d="M177.5,167.85h17a5,5,0,0,0,2.66-.65,8.93,8.93,0,0,0,1.6-1.21,10.35,10.35,0,0,0,1.27-1.67,8.42,8.42,0,0,0,1.07-2.74,5.12,5.12,0,0,0,0-2.36,3.67,3.67,0,0,0-.34-.86H184.19a2.26,2.26,0,0,0,.65.86,3.59,3.59,0,0,0,1.68.72q1,.16,1.5.2t1.47,0h4.36q2.66,0,2.26,1.84T193,163.92H178.37l1.23-5.56h-5.18l-2.1,9.49h5.18Z" transform="translate(-134.22 -141.96)"/><path class="cls-3" d="M218.5,167.2a8.93,8.93,0,0,0,1.6-1.21,10.35,10.35,0,0,0,1.27-1.67,8.42,8.42,0,0,0,1.07-2.74,5.12,5.12,0,0,0,0-2.36,3.67,3.67,0,0,0-.34-.86H205.58a2.26,2.26,0,0,0,.65.86,3.59,3.59,0,0,0,1.68.72q1,.16,1.5.2t1.47,0h4.36q2.66,0,2.26,1.84t-3.09,1.91h-9.55L203,167.85h12.85A5,5,0,0,0,218.5,167.2Z" transform="translate(-134.22 -141.96)"/><path class="cls-3" d="M233.08,167.85h7.31l.87-3.92H234.6a11.63,11.63,0,0,1-2.58-.22,1.94,1.94,0,0,1-1.26-1.06,3.7,3.7,0,0,1,0-2.25H242l.45-2H225.61q-.95,4.31.83,6.89T233.08,167.85Z" transform="translate(-134.22 -141.96)"/><path class="cls-3" d="M257.86,158.36l-1.18,5.35h-4.07a4.5,4.5,0,0,1-2-.32,1.26,1.26,0,0,1-.73-.92,4,4,0,0,1-.07-1,11.28,11.28,0,0,1,.23-1.3l.4-1.82h-4.9l-.5,2.25a8.14,8.14,0,0,0-.06,4.27,3.73,3.73,0,0,0,2.09,2.27,10.42,10.42,0,0,0,4.22.7h4.43a3.75,3.75,0,0,1-1.25,2.23,3.82,3.82,0,0,1-2.43.72h-117l-.85,3.85h118a9.83,9.83,0,0,0,4.14-.83,7,7,0,0,0,2.92-2.45,11.4,11.4,0,0,0,1.65-4l2-9Z" transform="translate(-134.22 -141.96)"/></svg>