<?xml version="1.0" encoding="utf-8"?>
<!-- Generator: Adobe Illustrator 21.0.0, SVG Export Plug-In . SVG Version: 6.00 Build 0)  -->
<svg version="1.1" id="Capa_1" xmlns="http://www.w3.org/2000/svg" xmlns:xlink="http://www.w3.org/1999/xlink" x="0px" y="0px"
	 viewBox="0 0 53.7 22.2" style="enable-background:new 0 0 53.7 22.2;" xml:space="preserve">
<style type="text/css">
	.st0{display:none;}
	.st1{display:inline;fill:#00A19A;}
	.st2{stroke:#1D1D1B;stroke-width:0.75;stroke-miterlimit:10;}
	.st3{fill:#F6F6F6;stroke:#1D1D1B;stroke-width:0.75;stroke-miterlimit:10;}
	.st4{fill:#EDEDED;stroke:#114CA9;stroke-width:0.25;stroke-miterlimit:10;}
	.st5{fill:#114CA9;}
	.st6{display:inline;fill:none;stroke:#000000;stroke-width:0.5;stroke-miterlimit:10;}
	.st7{font-family:'Haettenschweiler';}
	.st8{font-size:20px;}
	.st9{display:inline;fill:#F6F6F6;}
	.st10{font-size:16px;}
	.st11{fill:#E6EED3;}
</style>
<g id="Capa_1_1_" class="st0">
	<rect x="-13" y="-26.5" class="st1" width="75" height="75"/>
</g>
<g id="Capa_2">
	<g>
		<g>
			<path class="st2" d="M7,15.5H2V1h4.7c1.1,0,2.1,0.2,2.9,0.6c0.9,0.4,1.3,1.1,1.3,2.1v1.9c0,0.9-0.5,1.6-1.6,2.1
				C10.4,8.1,11,8.8,11,9.8v2.7c0,1-0.4,1.8-1.2,2.3C9,15.3,8,15.5,7,15.5z M2.4,15H7c1,0,1.8-0.2,2.5-0.7c0.7-0.4,1-1,1-1.9V9.7
				c0-0.9-0.7-1.5-2.1-1.8l-1-0.2l1-0.3c1.4-0.4,2-1,2-1.8V3.7c0-0.8-0.3-1.3-1-1.7C8.7,1.6,7.8,1.4,6.7,1.4H2.5L2.4,15L2.4,15z
				 M6,13.8H5.7V8.3H6c1.1,0,1.3,0.6,1.3,1v3.5C7.3,13.1,7.1,13.8,6,13.8z M6.2,8.7v4.5c0.6-0.1,0.6-0.3,0.6-0.5V9.2
				C6.8,9.1,6.8,8.8,6.2,8.7z M6,7.2H5.7V2.8H6c1.1,0,1.3,0.6,1.3,1v2.4C7.3,6.6,7.1,7.2,6,7.2z M6.2,3.4v3.3
				c0.6-0.1,0.6-0.4,0.6-0.5V3.8C6.8,3.7,6.8,3.4,6.2,3.4z"/>
		</g>
		<g>
			<path class="st3" d="M17.3,15.3h-5.8V4.1h3.1v9.8h2.7C17.3,13.9,17.3,15.3,17.3,15.3z"/>
			<path class="st2" d="M17.5,15.5h-6.3V3.8h3.6v9.8h2.7C17.5,13.6,17.5,15.5,17.5,15.5z M11.7,15H17v-0.9h-2.7V4.3h-2.6
				C11.7,4.3,11.7,15,11.7,15z"/>
		</g>
		<g>
			<path class="st3" d="M20.8,15.3h-3.1V4.1h3.1V15.3z"/>
			<path class="st2" d="M21,15.5h-3.6V3.8H21V15.5z M17.9,15h2.6V4.3h-2.6V15z"/>
		</g>
		<g>
			<path class="st2" d="M24.8,15.6c-2.5,0-3.7-0.8-3.7-2.3v-2.8h2.7C22.7,9.6,22,9,21.7,8.7c-0.4-0.4-0.5-0.8-0.5-1.3V6.1
				c0-1.6,1.3-2.4,3.8-2.4c2.3,0,3.4,0.8,3.4,2.2v2.2h-2.8c1.3,1,2.1,1.7,2.5,2.1c0.4,0.4,0.6,0.9,0.6,1.5v1.4
				C28.6,14.8,27.3,15.6,24.8,15.6z M21.6,11.1v2.3c0,0.4,0,1.8,3.2,1.8c2.2,0,3.3-0.6,3.3-2v-1.4c0-0.4-0.2-0.8-0.5-1.2
				s-1.2-1.1-2.4-2c-0.8-0.6-1.1-1.1-1.1-1.7L24,6.2c0-0.8,0.6-0.9,0.8-0.9c0.7,0,0.7,0.4,0.7,0.6v1.8h2.3V6c0-0.4,0-1.7-2.9-1.7
				c-3.3,0-3.3,1.5-3.3,1.9v1.3c0,0.4,0.1,0.7,0.4,1c0.3,0.3,1.1,1,2.4,2c0.7,0.6,1.1,1.1,1.1,1.6v1.3c0,0.2-0.1,0.6-0.8,0.6
				c-0.8,0-0.8-0.4-0.8-0.6v-2.3C23.9,11.1,21.6,11.1,21.6,11.1z M24.4,11.1v2.3c0,0,0,0.1,0.3,0.1s0.3-0.1,0.3-0.1v-1.3
				C25,11.9,24.9,11.5,24.4,11.1z M24.8,5.8c-0.1,0-0.3,0-0.3,0.4l0.1,0.7c0,0.2,0.1,0.5,0.5,0.8V5.8C25.1,5.8,25.1,5.8,24.8,5.8z"
				/>
		</g>
		<g>
			<path class="st2" d="M32.5,15.6c-2.5,0-3.7-0.8-3.7-2.3v-2.8h2.7c-1.1-0.9-1.8-1.5-2.1-1.8c-0.4-0.4-0.5-0.8-0.5-1.3V6.1
				c0-1.6,1.3-2.4,3.8-2.4c2.3,0,3.4,0.8,3.4,2.2v2.2h-2.8c1.3,1,2.1,1.7,2.5,2.1c0.4,0.4,0.6,0.9,0.6,1.5v1.4
				C36.3,14.8,35,15.6,32.5,15.6z M29.3,11.1v2.3c0,0.4,0,1.8,3.2,1.8c2.2,0,3.3-0.6,3.3-2v-1.4c0-0.4-0.2-0.8-0.5-1.2
				s-1.2-1.1-2.4-2c-0.8-0.6-1.1-1.1-1.1-1.7l-0.1-0.7c0-0.8,0.6-0.9,0.8-0.9c0.7,0,0.7,0.4,0.7,0.6v1.8h2.3V6c0-0.4,0-1.7-2.9-1.7
				c-3.3,0-3.3,1.5-3.3,1.9v1.3c0,0.4,0.1,0.7,0.4,1c0.3,0.3,1.1,1,2.4,2c0.8,0.6,1.1,1.1,1.1,1.6v1.3c0,0.2-0.1,0.6-0.8,0.6
				c-0.8,0-0.8-0.4-0.8-0.6v-2.3C31.6,11.1,29.3,11.1,29.3,11.1z M32.1,11.1v2.3c0,0,0,0.1,0.3,0.1s0.3-0.1,0.3-0.1v-1.3
				C32.7,11.9,32.6,11.5,32.1,11.1z M32.5,5.8c-0.1,0-0.3,0-0.3,0.4l0.1,0.7c0,0.2,0.1,0.5,0.5,0.8V5.8C32.7,5.8,32.7,5.8,32.5,5.8z
				"/>
		</g>
		<g>
			<path class="st3" d="M42.7,15.3h-6V4.1h6v1.4h-2.9v3h2.6v1.4h-2.6v3.9h2.9V15.3z"/>
			<path class="st2" d="M42.9,15.5h-6.5V3.8h6.5v1.9H40v2.5h2.6v1.9H40v3.4h2.9V15.5z M36.9,15h5.5v-0.9h-2.9V9.7h2.6V8.8h-2.6V5.3
				h2.9V4.4h-5.5V15z"/>
		</g>
		<g>
			<path class="st2" d="M48.8,15.5h-3.6v-4.6c-0.1-0.3-0.3-1.1-0.8-2.2c-0.4-1-1-2.5-1.8-4.5l-0.1-0.3H46l1.2,3.5l1.4-3.5H52
				L48.8,11V15.5z M45.8,15h2.6v-4.3l2.9-6.4H49l-1.8,4.4l-1.5-4.4h-2.4c0.7,1.9,1.3,3.3,1.6,4.2c0.5,1.2,0.7,2,0.8,2.4L45.8,15z"/>
		</g>
	</g>
	<g>
		<path class="st4" d="M1.9,15.3v-14h4.5c1.1,0,2,0.2,2.8,0.6s1.2,1,1.2,1.9v1.9c0,1-0.7,1.7-2.2,2.1c1.6,0.3,2.3,1,2.3,2v2.7
			c0,0.9-0.4,1.6-1.1,2.1s-1.6,0.7-2.6,0.7H1.9z M6.8,6.3V3.9c0-0.5-0.4-0.7-1.1-0.7v3.9C6.4,7,6.8,6.8,6.8,6.3z M6.8,12.8V9.3
			c0-0.5-0.4-0.7-1.1-0.7v5C6.4,13.6,6.8,13.3,6.8,12.8z"/>
		<path class="st4" d="M17,15.3h-5.8V4.1h3.1v9.8H17V15.3z"/>
		<path class="st4" d="M20.5,15.3h-3.1V4.1h3.1V15.3z"/>
		<path class="st4" d="M21.1,10.9h2.8v2.6c0,0.3,0.2,0.4,0.6,0.4c0.4,0,0.6-0.1,0.6-0.4v-1.3c0-0.4-0.3-0.9-1-1.4
			c-1.3-1-2.1-1.7-2.4-2c-0.3-0.3-0.5-0.7-0.5-1.1V6.4c0-1.5,1.2-2.2,3.6-2.2c2.1,0,3.2,0.7,3.2,2v1.9h-2.8V6c0-0.2-0.2-0.3-0.5-0.3
			c-0.4,0-0.5,0.2-0.5,0.6L24.3,7c0,0.4,0.3,0.9,1,1.5c1.3,1,2.1,1.7,2.5,2.1c0.3,0.4,0.5,0.8,0.5,1.3v1.4c0,1.5-1.2,2.2-3.6,2.2
			c-2.3,0-3.4-0.7-3.4-2v-2.6H21.1z"/>
		<path class="st4" d="M28.8,10.9h2.8v2.6c0,0.3,0.2,0.4,0.6,0.4c0.4,0,0.6-0.1,0.6-0.4v-1.3c0-0.4-0.3-0.9-1-1.4
			c-1.3-1-2.1-1.7-2.4-2c-0.3-0.3-0.5-0.7-0.5-1.1V6.4c0-1.5,1.2-2.2,3.6-2.2c2.1,0,3.2,0.7,3.2,2v1.9h-2.8V6c0-0.2-0.2-0.3-0.5-0.3
			c-0.4,0-0.5,0.2-0.5,0.6L32,7c0,0.4,0.3,0.9,1,1.5c1.3,1,2.1,1.7,2.5,2.1c0.3,0.4,0.5,0.8,0.5,1.3v1.4c0,1.5-1.2,2.2-3.6,2.2
			c-2.3,0-3.4-0.7-3.4-2v-2.6H28.8z"/>
		<path class="st4" d="M42.5,15.3h-6V4.1h6v1.4h-2.9v3h2.6v1.4h-2.6v3.9h2.9V15.3z"/>
		<path class="st4" d="M51.4,4.1l-2,4.5l-1,2.3v4.4h-3.1V11c-0.1-0.4-0.3-1.2-0.8-2.3c-0.4-1-1-2.5-1.8-4.5h2.9l1.4,4l1.6-4h2.8V4.1
			z"/>
	</g>
	<g>
		<polygon class="st5" points="17.7,15.6 15.5,10.8 1,10.8 1,9.8 16.1,9.8 17.4,12.7 19.2,6.1 21.2,10.3 49.8,10.3 49.8,11.3 
			20.6,11.3 19.5,8.9 		"/>
	</g>
</g>
<g id="Capa_3" class="st0">
	<text transform="matrix(1.2295 0 0 1 -9.4595 14.4316)" class="st9 st7 st8">B</text>
	<text transform="matrix(1.2295 0 0 1 -9.4595 14.4316)" class="st6 st7 st8">B</text>
	<text transform="matrix(1.25 0 0 1 -0.1426 14.4316)" class="st9 st7 st10">LISSEY</text>
	<text transform="matrix(1.25 0 0 1 -0.1426 14.4316)" class="st6 st7 st10">LISSEY</text>
</g>
<g>
	<path class="st11" d="M20.2,20.7h-0.6l1.2-2.9h0.6l1.2,2.9h-0.7L21.7,20h-1.3L20.2,20.7z M20.6,19.5h0.9L21,18.4L20.6,19.5z"/>
	<path class="st11" d="M23.4,20.7v-1.3l-1.1-1.6H23l0.7,1.1l0.7-1.1h0.7l-1.1,1.6v1.3H23.4z"/>
	<path class="st11" d="M25.3,19.5v-1.7h0.6v1.7c0,0.1,0,0.1,0,0.2c0,0.1,0,0.1,0,0.2s0,0.1,0.1,0.2c0,0.1,0.1,0.1,0.2,0.1
		c0.1,0,0.2,0,0.3,0c0.2,0,0.3,0,0.4-0.1c0.1-0.1,0.2-0.1,0.2-0.2c0-0.1,0.1-0.2,0.1-0.4v-1.7h0.6v1.7c0,0.1,0,0.1,0,0.2
		c0,0.1,0,0.1,0,0.2c0,0.1-0.1,0.3-0.2,0.5c-0.1,0.2-0.5,0.3-1,0.3c-0.5,0-0.9-0.1-1-0.3c-0.1-0.2-0.2-0.3-0.2-0.3
		c0-0.1,0-0.1,0-0.2s0-0.1,0-0.1c0,0,0-0.1,0-0.1S25.3,19.7,25.3,19.5L25.3,19.5z"/>
	<path class="st11" d="M29.7,20.7h-1.3v-2.9h1.3c0.3,0,0.5,0,0.7,0.1s0.3,0.2,0.4,0.4c0.1,0.2,0.1,0.3,0.2,0.4s0,0.3,0,0.4v0.2
		c0,0.5-0.1,0.8-0.3,1s-0.4,0.3-0.5,0.3S29.9,20.7,29.7,20.7z M29.7,18.3H29v1.9h0.7c0.1,0,0.2,0,0.3,0c0.1,0,0.1-0.1,0.2-0.1
		c0.1-0.1,0.1-0.2,0.2-0.3c0-0.1,0-0.3,0-0.4c0-0.2,0-0.3,0-0.4c0-0.1-0.1-0.2-0.1-0.3s-0.1-0.1-0.2-0.1c-0.1,0-0.1,0-0.2,0
		C29.8,18.3,29.7,18.3,29.7,18.3z"/>
	<path class="st11" d="M31.7,20.7h-0.6l1.2-2.9h0.6l1.2,2.9h-0.7L33.2,20h-1.3L31.7,20.7z M32.1,19.5H33l-0.4-1.1L32.1,19.5z"/>
</g>
</svg>
